<?xml version="1.0" encoding="utf-8"?>
<!-- Generator: Adobe Illustrator 18.0.0, SVG Export Plug-In . SVG Version: 6.00 Build 0)  -->
<!DOCTYPE svg PUBLIC "-//W3C//DTD SVG 1.1//EN" "http://www.w3.org/Graphics/SVG/1.1/DTD/svg11.dtd">
<svg version="1.1" id="Layer_1" xmlns="http://www.w3.org/2000/svg" xmlns:xlink="http://www.w3.org/1999/xlink" x="0px" y="0px"
	 width="128px" height="32.17px" viewBox="0 0 128 32.17" style="enable-background:new 0 0 128 32.17;" xml:space="preserve">
<style type="text/css">
	.st0{fill:#FFFFFF;}
</style>
<g>
	<polyline class="st0" points="24.82,0.4 29.09,0.4 29.09,31.81 25.22,31.81 4.22,7.62 4.22,31.81 0,31.81 0,0.4 3.64,0.4 
		24.82,24.79 24.82,0.4 	"/>
	<polyline class="st0" points="37.19,0.4 54.99,0.4 54.99,4.41 41.69,4.41 41.69,13.98 54.54,13.98 54.54,18.01 41.69,18.01 
		41.69,27.76 55.42,27.76 55.42,31.76 37.19,31.76 37.19,0.4 	"/>
	<polyline class="st0" points="102.97,0.4 107.46,0.4 94.76,31.94 93.77,31.94 83.5,6.41 73.13,31.94 72.16,31.94 59.51,0.4 
		64.04,0.4 72.69,22.05 81.4,0.4 85.65,0.4 94.41,22.05 102.97,0.4 	"/>
	<path class="st0" d="M119.64,18.65l-3.42-2.08c-2.14-1.31-3.67-2.6-4.57-3.86c-0.91-1.27-1.36-2.72-1.36-4.37
		c0-2.47,0.86-4.48,2.58-6.02c1.72-1.54,3.94-2.32,6.69-2.32c2.62,0,5.03,0.74,7.21,2.21v5.1c-2.26-2.18-4.7-3.26-7.31-3.26
		c-1.47,0-2.68,0.34-3.62,1.02c-0.94,0.68-1.42,1.55-1.42,2.61c0,0.94,0.35,1.82,1.04,2.64c0.7,0.82,1.81,1.69,3.36,2.59l3.44,2.03
		c3.83,2.29,5.74,5.2,5.74,8.74c0,2.52-0.84,4.56-2.53,6.14c-1.69,1.57-3.88,2.36-6.58,2.36c-3.1,0-5.92-0.95-8.47-2.86V23.6
		c2.43,3.07,5.24,4.61,8.43,4.61c1.41,0,2.58-0.39,3.52-1.18c0.94-0.78,1.4-1.76,1.4-2.95C123.77,22.18,122.4,20.36,119.64,18.65"/>
</g>
<g>
</g>
<g>
</g>
<g>
</g>
<g>
</g>
<g>
</g>
<g>
</g>
<g>
</g>
<g>
</g>
<g>
</g>
<g>
</g>
<g>
</g>
<g>
</g>
<g>
</g>
<g>
</g>
<g>
</g>
</svg>
